<svg width="170" height="170" viewBox="0 0 170 170" fill="none" xmlns="http://www.w3.org/2000/svg">
<path d="M134.117 94.8166C134.117 124.2 110.317 148 80.9333 148C51.5495 148 27.75 124.2 27.75 94.8166C27.75 65.4328 51.5495 41.6333 80.9333 41.6333C110.317 41.6333 134.117 65.4328 134.117 94.8166Z" fill="#F0F1F2"/>
<g filter="url(#filter0_d_914_1942)">
<path d="M36.2969 65.2154C36.2969 63.7685 37.9774 62.5957 40.0499 62.5957H114.842C116.914 62.5957 118.595 63.7685 118.595 65.2154V117.429C118.595 118.876 116.914 120.049 114.842 120.049H40.0499C37.9774 120.049 36.2969 118.876 36.2969 117.429V65.2154Z" fill="white"/>
</g>
<path d="M118.587 70.3604H36.2891V80.4535H118.587V70.3604Z" fill="#5BA7B1"/>
<path d="M118.98 80.4533C127.341 80.4533 134.119 73.675 134.119 65.3136C134.119 56.9521 127.341 50.1738 118.98 50.1738C110.618 50.1738 103.84 56.9521 103.84 65.3136C103.84 73.675 110.618 80.4533 118.98 80.4533Z" fill="white"/>
<path d="M118.975 78.1245C126.05 78.1245 131.785 72.3891 131.785 65.314C131.785 58.2389 126.05 52.5034 118.975 52.5034C111.9 52.5034 106.164 58.2389 106.164 65.314C106.164 72.3891 111.9 78.1245 118.975 78.1245Z" fill="#CD5747"/>
<path d="M113.158 88.2173H79.7725C79.3437 88.2173 78.9961 88.5649 78.9961 88.9937V90.5465C78.9961 90.9753 79.3437 91.3229 79.7725 91.3229H113.158C113.586 91.3229 113.934 90.9753 113.934 90.5465V88.9937C113.934 88.5649 113.586 88.2173 113.158 88.2173Z" fill="#C7E2E6"/>
<path d="M103.841 83.5591H79.7725C79.3437 83.5591 78.9961 83.9067 78.9961 84.3355V85.8883C78.9961 86.3171 79.3437 86.6647 79.7725 86.6647H103.841C104.27 86.6647 104.617 86.3171 104.617 85.8883V84.3355C104.617 83.9067 104.27 83.5591 103.841 83.5591Z" fill="#C7E2E6"/>
<path d="M87.5321 72.6895H40.9483C40.5195 72.6895 40.1719 73.0371 40.1719 73.4659C40.1719 73.8946 40.5195 74.2422 40.9483 74.2422H87.5321C87.9609 74.2422 88.3085 73.8946 88.3085 73.4659C88.3085 73.0371 87.9609 72.6895 87.5321 72.6895Z" fill="#7FBEC6"/>
<path d="M65.0166 75.7949H40.9483C40.5195 75.7949 40.1719 76.1425 40.1719 76.5713C40.1719 77.0001 40.5195 77.3477 40.9483 77.3477H65.0166C65.4454 77.3477 65.793 77.0001 65.793 76.5713C65.793 76.1425 65.4454 75.7949 65.0166 75.7949Z" fill="#7FBEC6"/>
<path d="M74.3334 83.5591H40.9483C40.5195 83.5591 40.1719 83.9067 40.1719 84.3355V113.839C40.1719 114.267 40.5195 114.615 40.9483 114.615H74.3334C74.7622 114.615 75.1098 114.267 75.1098 113.839V84.3355C75.1098 83.9067 74.7622 83.5591 74.3334 83.5591Z" fill="#C7E2E6"/>
<g filter="url(#filter1_d_914_1942)">
<path d="M92.9688 99.0522C92.9687 98.2379 93.2978 97.457 93.8835 96.8812C94.4692 96.3054 95.2637 95.9819 96.092 95.9819H135.653C136.481 95.9819 137.276 96.3054 137.861 96.8812C138.447 97.457 138.776 98.2379 138.776 99.0522V137.943C138.776 138.757 138.447 139.538 137.861 140.114C137.276 140.69 136.481 141.013 135.653 141.013H96.092C95.2637 141.013 94.4692 140.69 93.8835 140.114C93.2978 139.538 92.9688 138.757 92.9688 137.943V99.0522Z" fill="white"/>
</g>
<path d="M104.383 134.799L106.376 117.258L111.957 127.224L104.383 134.799Z" fill="#DE6A5A"/>
<path d="M128.536 132.657C128.375 132.316 127.499 125.231 127.499 125.231L126.708 117.107L127.08 106.239L122.642 105.448C122.097 105.351 121.539 105.458 121.045 105.707C117.332 107.58 112.037 108.277 108.387 106.792C108.157 106.698 107.911 106.647 107.665 106.675C107.012 106.751 105.665 106.988 104.904 107.686C104.51 108.049 105.15 111.216 105.728 114.338C106.338 117.622 105.173 125.629 105.173 125.629C105.173 125.629 103.58 134.798 104.528 134.798C104.528 134.798 122.268 131.582 128.209 134.798C128.209 134.803 129.463 134.628 128.536 132.657Z" fill="#DE6A5A"/>
<path d="M98.4037 112.089C98.3988 111.829 98.5398 111.59 98.7607 111.454L105.02 107.591L106.811 116.69L103.798 119.251C103.559 119.455 103.222 119.494 102.956 119.326C101.744 118.564 98.4798 116.138 98.4037 112.089Z" fill="#DE6A5A"/>
<path d="M127.082 106.236L133.191 108.883C133.543 109.036 133.731 109.418 133.63 109.787C133.134 111.596 131.67 116.717 130.601 118.226C130.441 118.453 130.145 118.489 129.889 118.381L126.894 117.114L126.057 119.734L126.012 109.153L127.082 106.236Z" fill="#DE6A5A"/>
<path d="M104.413 118.745C104.292 118.71 104.178 118.658 104.073 118.588C103.783 118.423 103.504 118.237 103.239 118.033C102.339 117.36 101.565 116.531 100.955 115.587C100.615 115.058 100.33 114.497 100.104 113.911C99.9332 113.436 99.8102 112.946 99.7362 112.446C99.6827 112.112 99.6587 111.773 99.6645 111.434C99.6527 111.309 99.6649 111.183 99.7003 111.062C99.7407 111.062 99.7362 111.591 99.8975 112.406C99.9928 112.89 100.129 113.365 100.305 113.826C100.528 114.386 100.801 114.924 101.12 115.434C101.719 116.357 102.458 117.181 103.311 117.876C103.983 118.436 104.436 118.709 104.413 118.745Z" fill="#CD5747"/>
<path d="M105.907 115.417C105.907 115.417 105.809 115.386 105.647 115.287C105.448 115.133 105.261 114.963 105.087 114.781C104.509 114.165 103.98 113.504 103.506 112.805C103.025 112.113 102.587 111.392 102.193 110.646C102.009 110.346 101.88 110.015 101.812 109.669C101.844 109.669 102.005 110.019 102.341 110.565C102.677 111.112 103.143 111.86 103.685 112.667C104.227 113.473 104.778 114.181 105.195 114.665C105.405 114.902 105.585 115.086 105.71 115.211C105.835 115.337 105.912 115.399 105.907 115.417Z" fill="#CD5747"/>
<path d="M126.311 106.856C126.046 106.944 125.775 107.015 125.501 107.067C124.976 107.196 124.224 107.398 123.305 107.68L120.066 108.693C118.749 109.111 117.401 109.425 116.034 109.634C113.508 109.979 110.936 109.726 108.526 108.894C107.803 108.648 107.099 108.348 106.42 107.998C106.179 107.877 106.004 107.761 105.878 107.689C105.814 107.655 105.753 107.613 105.699 107.564C105.96 107.664 106.215 107.781 106.461 107.913C107.149 108.237 107.857 108.517 108.58 108.751C110.966 109.524 113.495 109.75 115.981 109.414C117.345 109.217 118.693 108.918 120.013 108.518C121.236 108.16 122.329 107.81 123.261 107.55C124.192 107.291 124.954 107.102 125.501 107.008C125.765 106.955 125.949 106.928 126.114 106.905C126.177 106.878 126.243 106.861 126.311 106.856Z" fill="#CD5747"/>
<path d="M127.036 113.014C126.966 113.037 126.894 113.054 126.821 113.063L126.203 113.162C125.665 113.252 124.886 113.35 123.918 113.449C121.983 113.65 119.295 113.807 116.302 113.812C113.309 113.816 110.644 113.704 108.686 113.605L106.428 113.462L105.805 113.413C105.731 113.41 105.658 113.399 105.586 113.381C105.659 113.37 105.733 113.37 105.805 113.381H106.428L108.731 113.44C110.671 113.498 113.354 113.583 116.32 113.579C119.286 113.574 121.96 113.444 123.895 113.283C124.863 113.207 125.647 113.131 126.189 113.072L126.812 113.014C126.886 113.002 126.962 113.002 127.036 113.014Z" fill="#CD5747"/>
<path d="M126.713 117.107C126.467 117.212 126.212 117.294 125.951 117.353C125.705 117.429 125.4 117.497 125.055 117.577C124.71 117.658 124.289 117.743 123.832 117.81C121.461 118.188 119.065 118.398 116.664 118.437C113.855 118.518 111.311 118.437 109.496 118.294C108.6 118.227 107.834 118.146 107.324 118.079C107.058 118.05 106.795 118.004 106.535 117.94C106.802 117.933 107.069 117.95 107.333 117.989C107.848 118.025 108.587 118.084 109.505 118.128C111.338 118.213 113.878 118.285 116.673 118.205C119.072 118.162 121.465 117.977 123.841 117.649C124.289 117.591 124.706 117.519 125.064 117.447C125.423 117.376 125.732 117.326 125.96 117.264C126.208 117.197 126.459 117.144 126.713 117.107Z" fill="#CD5747"/>
<path d="M126.144 122.701C125.904 122.756 125.66 122.792 125.414 122.809C124.966 122.863 124.258 122.925 123.411 122.997C121.718 123.127 119.379 123.261 116.781 123.293C114.183 123.324 111.853 123.23 110.146 123.078C109.3 122.997 108.614 122.921 108.144 122.836C107.899 122.809 107.656 122.764 107.418 122.701C107.665 122.694 107.913 122.709 108.157 122.746C108.605 122.8 109.313 122.854 110.155 122.912C111.849 123.024 114.187 123.096 116.777 123.06C119.366 123.024 121.705 122.921 123.398 122.831L125.405 122.719C125.65 122.692 125.898 122.686 126.144 122.701Z" fill="#CD5747"/>
<path d="M127.233 128.21C126.967 128.221 126.7 128.211 126.436 128.179L124.263 128.026C122.431 127.905 119.891 127.78 117.095 127.78C114.3 127.78 111.751 127.905 109.927 128.026L107.754 128.179C107.49 128.211 107.223 128.221 106.957 128.21C107.217 128.151 107.48 128.11 107.746 128.089C108.256 128.022 108.995 127.946 109.914 127.86C111.746 127.699 114.291 127.547 117.082 127.547C119.873 127.547 122.431 127.699 124.25 127.86C125.146 127.941 125.907 128.022 126.418 128.089C126.692 128.109 126.965 128.149 127.233 128.21Z" fill="#CD5747"/>
<path d="M129.353 108.568C129.172 109.254 128.868 109.902 128.457 110.481C128.11 111.101 127.655 111.653 127.113 112.111C127.059 112.071 127.637 111.332 128.242 110.355C128.847 109.379 129.272 108.536 129.353 108.568Z" fill="#CD5747"/>
<path d="M105.152 111.08C105.222 111.263 105.27 111.454 105.296 111.649L105.632 113.221C105.918 114.596 106.299 116.406 106.72 118.409C107.141 120.411 107.5 122.275 107.742 123.61C107.858 124.278 107.948 124.82 108.002 125.196C108.038 125.391 108.056 125.589 108.055 125.787C107.987 125.602 107.939 125.41 107.912 125.214L107.576 123.641C107.289 122.271 106.908 120.456 106.492 118.454C106.075 116.451 105.708 114.592 105.47 113.252C105.349 112.585 105.26 112.043 105.206 111.666C105.17 111.473 105.152 111.276 105.152 111.08Z" fill="#DE6A5A"/>
<path d="M127.153 113.492C127.17 113.641 127.17 113.791 127.153 113.94C127.153 114.231 127.126 114.652 127.104 115.172C127.05 116.207 126.96 117.64 126.848 119.204C126.736 120.767 126.62 122.219 126.526 123.236C126.477 123.755 126.436 124.176 126.4 124.463C126.392 124.615 126.367 124.765 126.324 124.911C126.302 124.763 126.302 124.612 126.324 124.463C126.324 124.172 126.324 123.751 126.374 123.231C126.427 122.196 125.4 120.815 125.512 119.251C125.624 117.688 126.857 116.184 126.952 115.167C126.996 114.648 127.041 114.231 127.077 113.94C127.079 113.787 127.104 113.636 127.153 113.492Z" fill="#DE6A5A"/>
<path d="M128.519 132.923C128.436 132.916 128.354 132.901 128.273 132.879L127.583 132.713C127.283 132.637 126.915 132.547 126.485 132.462C126.055 132.377 125.589 132.256 125.025 132.175C124.46 132.095 123.887 131.978 123.233 131.911C122.579 131.844 121.889 131.772 121.172 131.709C119.597 131.615 118.017 131.615 116.441 131.709C114.865 131.824 113.297 132.035 111.746 132.341C111.034 132.498 110.358 132.632 109.735 132.811C109.112 132.991 108.53 133.147 108.001 133.313C107.473 133.479 107.007 133.645 106.594 133.788C106.182 133.931 105.828 134.066 105.542 134.182L104.879 134.442C104.802 134.479 104.721 134.504 104.637 134.518C104.706 134.472 104.779 134.433 104.856 134.402L105.501 134.106C105.784 133.976 106.129 133.824 106.545 133.658C106.962 133.492 107.441 133.309 107.947 133.147C108.454 132.986 109.049 132.78 109.681 132.614C110.313 132.449 110.985 132.283 111.697 132.122C114.823 131.463 118.027 131.252 121.213 131.494C121.938 131.562 122.633 131.615 123.278 131.718C123.923 131.821 124.523 131.906 125.07 132.014C125.616 132.122 126.1 132.234 126.53 132.337C126.96 132.44 127.323 132.534 127.619 132.628L128.3 132.834C128.377 132.852 128.451 132.883 128.519 132.923Z" fill="#CD5747"/>
<path d="M101.121 99.0864H97.2388C96.5956 99.0864 96.0742 99.6078 96.0742 100.251V104.133C96.0742 104.776 96.5956 105.298 97.2388 105.298H101.121C101.764 105.298 102.285 104.776 102.285 104.133V100.251C102.285 99.6078 101.764 99.0864 101.121 99.0864Z" fill="#3C8B96"/>
<path d="M97.6289 102.387L98.2119 103.553C98.2593 103.647 98.3856 103.668 98.4606 103.593L101.026 101.028" stroke="white" stroke-width="0.465839" stroke-linecap="round"/>
<g clip-path="url(#clip0_914_1942)">
<path d="M152.581 70.4255C152.581 69.9608 152.202 69.584 151.736 69.584C151.269 69.584 150.891 69.9608 150.891 70.4255V77.5578C150.891 78.0226 151.269 78.3994 151.736 78.3994C152.202 78.3994 152.581 78.0226 152.581 77.5578V70.4255Z" fill="#F0F1F2"/>
<path d="M155.323 74.8261C155.79 74.8261 156.168 74.4494 156.168 73.9846C156.168 73.5198 155.79 73.1431 155.323 73.1431H148.161C147.694 73.1431 147.316 73.5198 147.316 73.9846C147.316 74.4494 147.694 74.8261 148.161 74.8261H155.323Z" fill="#F0F1F2"/>
</g>
<g clip-path="url(#clip1_914_1942)">
<path d="M120.079 60.6025C120.079 59.9885 119.581 59.4907 118.967 59.4907C118.353 59.4907 117.855 59.9885 117.855 60.6025V70.0249C117.855 70.6389 118.353 71.1367 118.967 71.1367C119.581 71.1367 120.079 70.6389 120.079 70.0249V60.6025Z" fill="white"/>
<path d="M123.689 66.4164C124.303 66.4164 124.801 65.9186 124.801 65.3046C124.801 64.6906 124.303 64.1929 123.689 64.1929H114.267C113.653 64.1929 113.155 64.6906 113.155 65.3046C113.155 65.9186 113.653 66.4164 114.267 66.4164H123.689Z" fill="white"/>
</g>
<g clip-path="url(#clip2_914_1942)">
<path d="M18.2683 120.115C18.2683 119.65 17.8899 119.273 17.4232 119.273C16.9565 119.273 16.5781 119.65 16.5781 120.115V127.247C16.5781 127.712 16.9565 128.089 17.4232 128.089C17.8899 128.089 18.2683 127.712 18.2683 127.247V120.115Z" fill="#F0F1F2"/>
<path d="M21.0065 124.516C21.4732 124.516 21.8516 124.139 21.8516 123.674C21.8516 123.209 21.4732 122.833 21.0065 122.833H13.8442C13.3775 122.833 12.9992 123.209 12.9992 123.674C12.9992 124.139 13.3775 124.516 13.8442 124.516H21.0065Z" fill="#F0F1F2"/>
</g>
<circle cx="15.7183" cy="78.5128" r="1.94099" fill="#F0F1F2"/>
<circle cx="108.886" cy="24.941" r="1.94099" fill="#F0F1F2"/>
<defs>
<filter id="filter0_d_914_1942" x="30.3201" y="57.8143" width="94.2505" height="69.4072" filterUnits="userSpaceOnUse" color-interpolation-filters="sRGB">
<feFlood flood-opacity="0" result="BackgroundImageFix"/>
<feColorMatrix in="SourceAlpha" type="matrix" values="0 0 0 0 0 0 0 0 0 0 0 0 0 0 0 0 0 0 127 0" result="hardAlpha"/>
<feOffset dy="1.19536"/>
<feGaussianBlur stdDeviation="2.9884"/>
<feColorMatrix type="matrix" values="0 0 0 0 0 0 0 0 0 0 0 0 0 0 0 0 0 0 0.14 0"/>
<feBlend mode="normal" in2="BackgroundImageFix" result="effect1_dropShadow_914_1942"/>
<feBlend mode="normal" in="SourceGraphic" in2="effect1_dropShadow_914_1942" result="shape"/>
</filter>
<filter id="filter1_d_914_1942" x="89.9804" y="93.5912" width="51.7854" height="51.008" filterUnits="userSpaceOnUse" color-interpolation-filters="sRGB">
<feFlood flood-opacity="0" result="BackgroundImageFix"/>
<feColorMatrix in="SourceAlpha" type="matrix" values="0 0 0 0 0 0 0 0 0 0 0 0 0 0 0 0 0 0 127 0" result="hardAlpha"/>
<feOffset dy="0.59768"/>
<feGaussianBlur stdDeviation="1.4942"/>
<feColorMatrix type="matrix" values="0 0 0 0 0 0 0 0 0 0 0 0 0 0 0 0 0 0 0.12 0"/>
<feBlend mode="normal" in2="BackgroundImageFix" result="effect1_dropShadow_914_1942"/>
<feBlend mode="normal" in="SourceGraphic" in2="effect1_dropShadow_914_1942" result="shape"/>
</filter>
<clipPath id="clip0_914_1942">
<rect width="8.85239" height="8.8154" fill="white" transform="translate(147.316 69.584)"/>
</clipPath>
<clipPath id="clip1_914_1942">
<rect width="11.646" height="11.646" fill="white" transform="translate(113.156 59.4907)"/>
</clipPath>
<clipPath id="clip2_914_1942">
<rect width="8.85239" height="8.8154" fill="white" transform="translate(13 119.273)"/>
</clipPath>
</defs>
</svg>
